# xmcd CD database file
#
# Track frame offsets:
#	150
#	19848
#	35057
#	54665
#	71864
#	90899
#	103832
#	117063
#	133123
#	148826
#	165661
#	181492
#	200023
#	216770
#	234556
#	253810
#	269322
#	292325
#	307286
#	326460
#
# Disc length: 4574 seconds
#
# Revision: 1
# Processed by: cddbd v1.5.2PL0 Copyright (c) Steve Scherf et al.
# Submitted via: CDex 1.51
#
DISCID=4111dc14
DTITLE=Rozni wykonawcy - Antologia Polskiego Bluesa 3 - CD5 Bluesy na rozne instrumenty
DYEAR=2011
DGENRE=Blues
TTITLE0=Wlodzimierz Nahorny (Breakout) - Nie znasz jeszcze zycia
TTITLE1=Adam Wendt (Nocna Zmiana Bluesa) - Chodz, chodz
TTITLE2=Cezary Czternastek (Kasa Chorych) - O czlowieku, ktory nie zakolysze sie w rytmie bluesa
TTITLE3=Jacek Wasowski (Pawel Szymanski) - Czarny kot przebiegl mi droge
TTITLE4=Wojciech Karolak (Wierzcholski-Karolak) - Ostatni polski bluesman
TTITLE5=Henryk Szopinski (Blues Flowers) - Moja lutownica
TTITLE6=Tomasz Szukalski (Tadeusz Nalepa) - Wiec badz
TTITLE7=Krzysztof Trebunia-Tutka (S³wek Wierzcholski) - Ruszam w droge
TTITLE8=Bartek Szopinski (Boogie Boys) - Nothin' But The Queen
TTITLE9=Tomasz Kaminski (Nocna Zmiana Bluesa) - My dwaj
TTITLE10=Waldemar Knade (Doktor Blues) - Deep River Blues
TTITLE11=Jan Galach (Jan Ga³ach Band) - Cytrynówka
TTITLE12=Piotr Wojtasik (Wierzcholski-Karolak) - Polski blues
TTITLE13=Jan Bledowski (Nocna Zmiana Bluesa) - Sunburn
TTITLE14=Tomasz Karokoszka - U Karkoszkow
TTITLE15=Joanna Szczepanska (Nocna Zmiana Bluesa)
TTITLE16=Andrzej Brzeski (Blues Menu) - Dlaczego tak mnie traktujesz
TTITLE17=Krzysztof Sadowski (Grupa Organowa Krzysztofa Sadowskiego) - I Got My Mojo Working
TTITLE18=Zdzislaw Piernik (Slawek Wierzcholski) - Blues dla zmartwionych
TTITLE19=Instrumenty Perkusyjne - To tylko mgla
EXTD=YEAR: 2011
EXTT0=
EXTT1=
EXTT2=
EXTT3=
EXTT4=
EXTT5=
EXTT6=
EXTT7=
EXTT8=
EXTT9=
EXTT10=
EXTT11=
EXTT12=
EXTT13=
EXTT14=
EXTT15=
EXTT16=
EXTT17=
EXTT18=
EXTT19=
PLAYORDER=
